Coordinates
version=1
nRows=29
nColumns=22
inDegrees=yes

Units are S.I. units (second, meters, Newtons, ...)
If the header above contains a line with 'inDegrees', this indicates whether rotational values are in degrees (yes) or radians (no).

endheader
time	pelvis_tilt	pelvis_list	pelvis_rotation	pelvis_tx	pelvis_ty	pelvis_tz	hip_flexion_r	hip_adduction_r	hip_rotation_r	knee_angle_r	ankle_angle_r	subtalar_angle_r	hip_flexion_l	hip_adduction_l	hip_rotation_l	knee_angle_l	ankle_angle_l	subtalar_angle_l	lumbar_extension	lumbar_bending	lumbar_rotation
      1.74000000	      1.41542019	     -2.52570149	    -27.79076860	     -0.90431133	      0.90690853	     -0.42838534	     12.25508023	     -2.31835060	      2.58288287	    -36.95185410	     16.72208418	     -3.12417444	     -0.78803049	      1.05775574	    -11.87358294	    -18.59990459	     17.95315393	     -3.19948660	    -11.51778719	     -0.43196775	      4.67423302
      1.75000000	      1.55840086	     -2.63808692	    -27.67279848	     -0.90297521	      0.90713114	     -0.42909954	     12.80128528	     -2.43208084	      1.99620125	    -37.83879356	     16.82034313	     -4.01122311	     -1.07292474	      1.09562593	    -11.84099841	    -18.52577995	     17.92752017	     -3.19709131	    -11.77960595	     -0.32994418	      4.41145970
      1.76000000	      1.72540427	     -2.75266865	    -27.53196181	     -0.90154361	      0.90738908	     -0.42978712	     13.26583651	     -2.56998832	      1.39337229	    -38.55135497	     16.95039061	     -4.72993838	     -1.39434253	      1.15078893	    -11.72955415	    -18.43628358	     17.92927397	     -3.18955367	    -12.06130299	     -0.23387876	      4.17057972
      1.77000000	      1.88397552	     -2.87216501	    -27.37545074	     -0.90000260	      0.90765406	     -0.43042286	     13.66998792	     -2.70795429	      0.77297894	    -39.07186020	     17.10394451	     -5.44346360	     -1.71838771	      1.19500260	    -11.60006593	    -18.34497887	     17.92747639	     -3.19450973	    -12.32329840	     -0.11930353	      3.92902734
      1.78000000	      2.02514674	     -2.99369818	    -27.21532865	     -0.89839485	      0.90790813	     -0.43099422	     14.03462708	     -2.83571078	      0.15296223	    -39.41488631	     17.26811300	     -6.12247084	     -2.03086070	      1.22599617	    -11.45358371	    -18.25638882	     17.93601786	     -3.20963763	    -12.55913417	      0.00727854	      3.71824831
      1.79000000	      2.13009822	     -3.09778780	    -27.04779171	     -0.89671444	      0.90810836	     -0.43151753	     14.39103788	     -2.96641757	     -0.48285222	    -39.58816086	     17.43385114	     -6.54226763	     -2.31060065	      1.26046183	    -11.24882631	    -18.15521541	     17.95889738	     -3.21325650	    -12.73723106	      0.14063259	      3.51594152
      1.80000000	      2.22859598	     -3.21814786	    -26.91742831	     -0.89505195	      0.90831868	     -0.43190475	     14.70466907	     -3.05495673	     -1.07120180	    -39.59654028	     17.56889997	     -7.24272335	     -2.57662501	      1.25903087	    -11.13975875	    -18.09936462	     17.96419349	     -3.27064965	    -12.91798932	      0.28153496	      3.36942872
      1.81000000	      2.27921372	     -3.30222951	    -26.78251716	     -0.89335169	      0.90842287	     -0.43224123	     15.05125462	     -3.15968779	     -1.68567925	    -39.47638552	     17.68144027	     -7.44863264	     -2.77125918	      1.26849548	    -10.98814822	    -18.06229924	     17.98930665	     -3.27875349	    -13.02397678	      0.41069741	      3.21092024
      1.82000000	      2.31797275	     -3.41184301	    -26.67560722	     -0.89161755	      0.90855461	     -0.43245306	     15.33816551	     -3.20740388	     -2.25647278	    -39.17453779	     17.77460430	     -7.91253846	     -2.98925221	      1.25061394	    -10.83096516	    -17.99808874	     17.99986386	     -3.35952346	    -13.12560105	      0.56549533	      3.11971622
      1.83000000	      2.31113824	     -3.49320193	    -26.57451584	     -0.88987591	      0.90857727	     -0.43258085	     15.65766510	     -3.25436012	     -2.83562537	    -38.76117989	     17.84073681	     -8.00651477	     -3.12343494	      1.22525380	    -10.70087944	    -17.99003512	     18.00468996	     -3.38264493	    -13.16350708	      0.70970898	      3.02300192
      1.84000000	      2.29694089	     -3.57951284	    -26.49827403	     -0.88812181	      0.90859332	     -0.43254950	     15.93782858	     -3.26660928	     -3.38225427	    -38.20542909	     17.87132436	     -8.08415144	     -3.26828316	      1.18868841	    -10.56831599	    -17.96933445	     18.02248758	     -3.42791265	    -13.19120744	      0.84360542	      2.96127259
      1.85000000	      2.27189961	     -3.66368616	    -26.43495563	     -0.88634919	      0.90857474	     -0.43240815	     16.19396235	     -3.25802231	     -3.91120720	    -37.53412620	     17.88546584	     -8.11065329	     -3.40375539	      1.14345645	    -10.45229885	    -17.95603711	     18.04086770	     -3.48358563	    -13.20588248	      0.97287765	      2.91820491
      1.86000000	      2.24100866	     -3.74612632	    -26.37646521	     -0.88455607	      0.90853103	     -0.43213915	     16.41583717	     -3.23044716	     -4.43291661	    -36.74929997	     17.86832676	     -8.07930673	     -3.53854844	      1.08940721	    -10.34092684	    -17.94334042	     18.07430701	     -3.54537054	    -13.21034710	      1.09032350	      2.87810703
      1.87000000	      2.21189010	     -3.82864757	    -26.31697442	     -0.88273622	      0.90846952	     -0.43176336	     16.59430557	     -3.18908567	     -4.95585861	    -35.85830767	     17.81844714	     -7.97531877	     -3.67971831	      1.02865940	    -10.23621940	    -17.93212119	     18.12726487	     -3.60742127	    -13.21462959	      1.19745296	      2.83776079
      1.88000000	      2.16604410	     -3.90473929	    -26.26406921	     -0.88091766	      0.90835815	     -0.43129031	     16.75301138	     -3.12174286	     -5.44501923	    -34.86620872	     17.75570644	     -7.84498029	     -3.79320492	      0.95807217	    -10.13758095	    -17.94466532	     18.16201202	     -3.64466448	    -13.20095465	      1.29697662	      2.82604495
      1.89000000	      2.15094024	     -3.98359578	    -26.19837242	     -0.87902317	      0.90826092	     -0.43073660	     16.84025726	     -3.06522926	     -5.97551390	    -33.79477587	     17.64060218	     -7.61496799	     -3.95635240	      0.89356646	    -10.06017202	    -17.93301875	     18.26377970	     -3.65960658	    -13.21462681	      1.38306197	      2.77937893
      1.90000000	      2.12634678	     -4.06113302	    -26.13593875	     -0.87712109	      0.90812510	     -0.43007549	     16.90016589	     -2.98295517	     -6.48914955	    -32.64216645	     17.51215582	     -7.35889893	     -4.10653891	      0.81739644	     -9.98353694	    -17.93621433	     18.34893605	     -3.64733109	    -13.21759067	      1.46041260	      2.76324725
      1.91000000	      2.10793726	     -4.13786834	    -26.06864617	     -0.87518054	      0.90796688	     -0.42934095	     16.92056215	     -2.89017936	     -7.00338940	    -31.42535266	     17.36214241	     -7.08425697	     -4.26662548	      0.73866549	     -9.91815340	    -17.94001335	     18.44566053	     -3.61632606	    -13.22579205	      1.53131950	      2.74473180
      1.92000000	      2.11596585	     -4.21773513	    -26.00031042	     -0.87319451	      0.90781805	     -0.42852509	     16.88258527	     -2.79169872	     -7.51827987	    -30.15665545	     17.21400576	     -6.69656843	     -4.47066986	      0.66882943	     -9.84011704	    -17.92300089	     18.53939918	     -3.56364925	    -13.26257233	      1.58613273	      2.75207103
      1.93000000	      2.09562225	     -4.29294365	    -25.91751618	     -0.87117278	      0.90759251	     -0.42765497	     16.85045982	     -2.67241366	     -8.04657399	    -28.85425955	     17.02882877	     -6.44728396	     -4.62933156	      0.57411480	     -9.81490570	    -17.94174134	     18.66565737	     -3.53368799	    -13.26536159	      1.65568191	      2.71814971
      1.94000000	      2.12036609	     -4.37612619	    -25.83581695	     -0.86909934	      0.90740698	     -0.42669565	     16.74683800	     -2.55026708	     -8.56851204	    -27.52643934	     16.88751677	     -6.03682257	     -4.86731826	      0.49664296	     -9.75751915	    -17.91262477	     18.77805698	     -3.48089944	    -13.31872243	      1.70307812	      2.72591504
      1.95000000	      2.12407095	     -4.45267204	    -25.74741188	     -0.86699946	      0.90715617	     -0.42565538	     16.65246060	     -2.40566597	     -9.07372002	    -26.19137467	     16.74174016	     -5.65742025	     -5.07783452	      0.40387600	     -9.73146620	    -17.89998755	     18.90143469	     -3.43678693	    -13.34455199	      1.75241565	      2.71668894
      1.96000000	      2.11092119	     -4.52524518	    -25.65354754	     -0.86487105	      0.90684429	     -0.42455226	     16.57356368	     -2.24498761	     -9.56829111	    -24.87780922	     16.59411797	     -5.36076109	     -5.26532708	      0.29592906	     -9.73811043	    -17.90306939	     19.06221904	     -3.40169920	    -13.35090895	      1.80825348	      2.70546567
      1.97000000	      2.09711616	     -4.59750238	    -25.56063482	     -0.86271331	      0.90650730	     -0.42337211	     16.48634985	     -2.06317535	    -10.00730635	    -23.57649814	     16.46685823	     -5.01605815	     -5.46182307	      0.18622585	     -9.73254716	    -17.89897019	     19.21165660	     -3.35699704	    -13.35559897	      1.86317082	      2.71423305
      1.98000000	      2.08411027	     -4.65846789	    -25.47193588	     -0.86053289	      0.90613884	     -0.42212686	     16.41446220	     -1.88160170	    -10.39931198	    -22.33312107	     16.34019161	     -4.63154360	     -5.65984869	      0.08431716	     -9.73831269	    -17.88887123	     19.37037196	     -3.29965959	    -13.35763031	      1.90584095	      2.73578340
      1.99000000	      2.07165823	     -4.71197544	    -25.38873275	     -0.85832361	      0.90574674	     -0.42080943	     16.35566251	     -1.69736435	    -10.73769505	    -21.15211592	     16.21727705	     -4.17792007	     -5.86463413	     -0.01211319	     -9.74149729	    -17.86978852	     19.52787973	     -3.22264693	    -13.35607632	      1.94134143	      2.77176972
      2.00000000	      2.04800135	     -4.75049170	    -25.31157528	     -0.85610707	      0.90531297	     -0.41942142	     16.33032798	     -1.51250801	    -10.99814439	    -20.04699396	     16.09823063	     -3.70531973	     -6.05181818	     -0.10185443	     -9.72979341	    -17.85763446	     19.67184429	     -3.13204071	    -13.33856807	      1.96211543	      2.83186772
      2.01000000	      1.98428947	     -4.78030919	    -25.24759587	     -0.85386486	      0.90481181	     -0.41796514	     16.36755502	     -1.31478994	    -11.20952472	    -19.03256446	     15.92535059	     -3.43505273	     -6.19220439	     -0.20943952	     -9.76660700	    -17.86015228	     19.84278925	     -3.07461005	    -13.27311499	      2.00134417	      2.88477365
      2.02000000	      1.92882676	     -4.80052280	    -25.18519961	     -0.85162984	      0.90430831	     -0.41645173	     16.41545377	     -1.12726214	    -11.35248736	    -18.10326281	     15.76844448	     -3.18439823	     -6.32953225	     -0.30390001	     -9.75541688	    -17.87886348	     19.99340803	     -3.00941169	    -13.21969937	      2.02116256	      2.97446058
